<?xml version="1.0" encoding="UTF-8"?>
<svg id="Layer_1" data-name="Layer 1" xmlns="http://www.w3.org/2000/svg" viewBox="0 0 2000 2000">
  <defs>
    <style>
      .cls-1 {
        fill: #ffc809;
      }

      .cls-2 {
        fill: #496bb3;
      }
    </style>
  </defs>
  <g>
    <path class="cls-2" d="m645.18,992.63v-62.82h-23.47v-8.41h56.46v8.41h-23.56v62.82h-9.43Z"/>
    <path class="cls-2" d="m686.73,992.63v-71.23h8.75v25.56c4.08-4.73,9.23-7.09,15.45-7.09,3.82,0,7.14.75,9.96,2.26,2.82,1.51,4.83,3.59,6.05,6.24,1.21,2.66,1.82,6.51,1.82,11.56v32.7h-8.75v-32.7c0-4.37-.95-7.56-2.84-9.55-1.9-1.99-4.58-2.99-8.04-2.99-2.59,0-5.03.67-7.31,2.02-2.28,1.34-3.91,3.17-4.88,5.47-.97,2.3-1.46,5.47-1.46,9.52v28.23h-8.75Z"/>
    <path class="cls-2" d="m777.39,976.01l9.04,1.12c-1.43,5.28-4.07,9.38-7.92,12.29-3.86,2.92-8.78,4.37-14.77,4.37-7.55,0-13.53-2.32-17.95-6.97-4.42-4.65-6.63-11.17-6.63-19.56s2.24-15.42,6.71-20.21c4.47-4.79,10.27-7.19,17.39-7.19s12.54,2.35,16.91,7.05c4.37,4.7,6.56,11.31,6.56,19.82,0,.52-.02,1.3-.05,2.33h-38.48c.32,5.67,1.93,10.01,4.81,13.02,2.88,3.01,6.48,4.52,10.79,4.52,3.21,0,5.94-.84,8.21-2.53s4.07-4.37,5.39-8.07Zm-28.72-14.14h28.81c-.39-4.34-1.49-7.6-3.3-9.77-2.79-3.37-6.4-5.05-10.84-5.05-4.02,0-7.39,1.34-10.13,4.03-2.74,2.69-4.25,6.28-4.54,10.79Z"/>
    <path class="cls-2" d="m877,967.65l9.43,2.38c-1.98,7.74-5.53,13.65-10.66,17.71s-11.41,6.1-18.83,6.1-13.92-1.56-18.73-4.69c-4.81-3.13-8.47-7.65-10.98-13.58-2.51-5.93-3.77-12.29-3.77-19.09,0-7.42,1.42-13.89,4.25-19.41,2.83-5.52,6.87-9.72,12.1-12.58,5.23-2.87,10.99-4.3,17.27-4.3,7.13,0,13.12,1.81,17.98,5.44,4.86,3.63,8.24,8.73,10.15,15.31l-9.28,2.19c-1.65-5.18-4.05-8.96-7.19-11.32-3.14-2.36-7.09-3.55-11.86-3.55-5.47,0-10.05,1.31-13.73,3.94-3.68,2.62-6.26,6.15-7.75,10.57-1.49,4.42-2.24,8.98-2.24,13.68,0,6.06.88,11.35,2.65,15.86,1.77,4.52,4.51,7.9,8.24,10.13,3.72,2.24,7.76,3.35,12.1,3.35,5.28,0,9.75-1.52,13.41-4.57,3.66-3.04,6.14-7.56,7.43-13.56Z"/>
    <path class="cls-2" d="m896.72,992.63v-71.23h8.75v71.23h-8.75Z"/>
    <path class="cls-2" d="m954.35,976.01l9.04,1.12c-1.43,5.28-4.07,9.38-7.92,12.29-3.86,2.92-8.78,4.37-14.77,4.37-7.55,0-13.53-2.32-17.95-6.97-4.42-4.65-6.63-11.17-6.63-19.56s2.24-15.42,6.71-20.21c4.47-4.79,10.27-7.19,17.39-7.19s12.54,2.35,16.91,7.05c4.37,4.7,6.56,11.31,6.56,19.82,0,.52-.02,1.3-.05,2.33h-38.48c.32,5.67,1.93,10.01,4.81,13.02,2.88,3.01,6.48,4.52,10.79,4.52,3.21,0,5.94-.84,8.21-2.53s4.07-4.37,5.39-8.07Zm-28.72-14.14h28.81c-.39-4.34-1.49-7.6-3.3-9.77-2.79-3.37-6.4-5.05-10.84-5.05-4.02,0-7.39,1.34-10.13,4.03-2.74,2.69-4.25,6.28-4.54,10.79Z"/>
    <path class="cls-2" d="m1008.04,986.26c-3.24,2.75-6.36,4.7-9.35,5.83-3,1.13-6.21,1.7-9.64,1.7-5.67,0-10.03-1.38-13.07-4.15-3.05-2.77-4.57-6.31-4.57-10.62,0-2.53.57-4.83,1.72-6.92,1.15-2.09,2.66-3.77,4.52-5.03,1.86-1.26,3.96-2.22,6.29-2.87,1.72-.45,4.31-.89,7.77-1.31,7.06-.84,12.26-1.85,15.6-3.01.03-1.2.05-1.96.05-2.28,0-3.56-.83-6.07-2.48-7.53-2.23-1.98-5.56-2.96-9.96-2.96-4.11,0-7.15.72-9.11,2.16-1.96,1.44-3.41,3.99-4.35,7.65l-8.55-1.17c.78-3.66,2.06-6.62,3.84-8.87,1.78-2.25,4.36-3.98,7.73-5.2,3.37-1.21,7.27-1.82,11.71-1.82s7.98.52,10.74,1.55c2.75,1.04,4.78,2.34,6.07,3.91,1.3,1.57,2.2,3.56,2.72,5.95.29,1.49.44,4.18.44,8.07v11.66c0,8.13.19,13.27.56,15.43.37,2.15,1.11,4.22,2.21,6.19h-9.13c-.91-1.81-1.49-3.94-1.75-6.36Zm-.73-19.53c-3.18,1.3-7.94,2.4-14.29,3.3-3.6.52-6.14,1.1-7.63,1.75-1.49.65-2.64,1.6-3.45,2.84-.81,1.25-1.21,2.63-1.21,4.15,0,2.33.88,4.28,2.65,5.83,1.77,1.55,4.35,2.33,7.75,2.33s6.36-.74,8.99-2.21c2.62-1.47,4.55-3.49,5.78-6.05.94-1.98,1.41-4.89,1.41-8.75v-3.21Z"/>
    <path class="cls-2" d="m1029.71,992.63v-51.6h7.87v7.34c3.79-5.67,9.26-8.5,16.42-8.5,3.11,0,5.97.56,8.58,1.68,2.61,1.12,4.56,2.58,5.86,4.4,1.29,1.81,2.2,3.97,2.72,6.46.32,1.62.49,4.45.49,8.5v31.73h-8.75v-31.39c0-3.56-.34-6.23-1.02-7.99-.68-1.77-1.89-3.17-3.62-4.23-1.73-1.05-3.76-1.58-6.1-1.58-3.72,0-6.94,1.18-9.64,3.55-2.71,2.36-4.06,6.85-4.06,13.46v28.18h-8.75Z"/>
    <path class="cls-2" d="m1085.1,931.45v-10.06h8.75v10.06h-8.75Zm0,61.17v-51.6h8.75v51.6h-8.75Z"/>
    <path class="cls-2" d="m1107.16,992.63v-51.6h7.87v7.34c3.79-5.67,9.26-8.5,16.42-8.5,3.11,0,5.97.56,8.58,1.68,2.61,1.12,4.56,2.58,5.86,4.4,1.3,1.81,2.2,3.97,2.72,6.46.32,1.62.49,4.45.49,8.5v31.73h-8.75v-31.39c0-3.56-.34-6.23-1.02-7.99-.68-1.77-1.89-3.17-3.62-4.23-1.73-1.05-3.77-1.58-6.1-1.58-3.72,0-6.94,1.18-9.64,3.55-2.71,2.36-4.06,6.85-4.06,13.46v28.18h-8.75Z"/>
    <path class="cls-2" d="m1160.9,996.9l8.5,1.26c.36,2.62,1.34,4.53,2.96,5.73,2.17,1.62,5.13,2.43,8.89,2.43,4.05,0,7.17-.81,9.38-2.43,2.2-1.62,3.69-3.89,4.47-6.8.45-1.78.66-5.52.63-11.22-3.82,4.5-8.58,6.75-14.28,6.75-7.09,0-12.58-2.56-16.47-7.68-3.89-5.12-5.83-11.26-5.83-18.42,0-4.92.89-9.47,2.67-13.63,1.78-4.16,4.37-7.38,7.75-9.64,3.38-2.27,7.36-3.4,11.93-3.4,6.09,0,11.11,2.46,15.06,7.39v-6.22h8.07v44.6c0,8.03-.82,13.73-2.45,17.08-1.64,3.35-4.23,6-7.77,7.94-3.55,1.94-7.91,2.92-13.09,2.92-6.16,0-11.13-1.38-14.92-4.15-3.79-2.77-5.62-6.94-5.49-12.51Zm7.24-31c0,6.77,1.34,11.71,4.03,14.82,2.69,3.11,6.06,4.66,10.11,4.66s7.39-1.55,10.11-4.64c2.72-3.09,4.08-7.94,4.08-14.55s-1.4-11.08-4.2-14.29c-2.8-3.21-6.18-4.81-10.13-4.81s-7.19,1.58-9.91,4.74c-2.72,3.16-4.08,7.85-4.08,14.07Z"/>
    <path class="cls-2" d="m1243.4,969.74l8.89-.78c.42,3.56,1.4,6.49,2.94,8.77,1.54,2.28,3.93,4.13,7.17,5.54,3.24,1.41,6.88,2.11,10.93,2.11,3.6,0,6.77-.53,9.52-1.6s4.8-2.53,6.15-4.4c1.34-1.86,2.02-3.89,2.02-6.1s-.65-4.19-1.94-5.86c-1.3-1.67-3.43-3.07-6.41-4.2-1.91-.75-6.14-1.9-12.68-3.47-6.54-1.57-11.13-3.05-13.75-4.45-3.4-1.78-5.94-3.99-7.6-6.63-1.67-2.64-2.5-5.6-2.5-8.87,0-3.6,1.02-6.96,3.06-10.08,2.04-3.13,5.02-5.5,8.94-7.12,3.92-1.62,8.28-2.43,13.07-2.43,5.28,0,9.94.85,13.97,2.55,4.03,1.7,7.13,4.2,9.3,7.51,2.17,3.3,3.34,7.04,3.5,11.22l-9.04.68c-.49-4.5-2.13-7.9-4.93-10.2-2.8-2.3-6.94-3.45-12.41-3.45s-9.85,1.04-12.46,3.13c-2.61,2.09-3.91,4.61-3.91,7.56,0,2.56.92,4.66,2.77,6.32,1.81,1.65,6.55,3.35,14.21,5.08,7.66,1.73,12.92,3.25,15.77,4.54,4.15,1.91,7.21,4.33,9.18,7.26,1.97,2.93,2.96,6.31,2.96,10.13s-1.09,7.36-3.26,10.71c-2.17,3.35-5.29,5.96-9.35,7.82s-8.64,2.79-13.73,2.79c-6.45,0-11.85-.94-16.21-2.82-4.36-1.88-7.77-4.7-10.25-8.48-2.48-3.77-3.78-8.04-3.91-12.8Z"/>
    <path class="cls-2" d="m1330.95,984.8l1.26,7.73c-2.46.52-4.66.78-6.61.78-3.18,0-5.64-.5-7.39-1.51s-2.98-2.32-3.69-3.96c-.71-1.64-1.07-5.08-1.07-10.33v-29.69h-6.41v-6.8h6.41v-12.78l8.7-5.25v18.03h8.79v6.8h-8.79v30.17c0,2.49.15,4.1.46,4.81.31.71.81,1.28,1.51,1.7.7.42,1.69.63,2.99.63.97,0,2.25-.11,3.84-.34Z"/>
    <path class="cls-2" d="m1373.18,986.26c-3.24,2.75-6.36,4.7-9.35,5.83-3,1.13-6.21,1.7-9.65,1.7-5.67,0-10.03-1.38-13.07-4.15-3.04-2.77-4.57-6.31-4.57-10.62,0-2.53.57-4.83,1.72-6.92,1.15-2.09,2.66-3.77,4.52-5.03,1.86-1.26,3.96-2.22,6.29-2.87,1.72-.45,4.31-.89,7.77-1.31,7.06-.84,12.26-1.85,15.6-3.01.03-1.2.05-1.96.05-2.28,0-3.56-.83-6.07-2.48-7.53-2.23-1.98-5.56-2.96-9.96-2.96-4.11,0-7.15.72-9.11,2.16-1.96,1.44-3.41,3.99-4.35,7.65l-8.55-1.17c.78-3.66,2.06-6.62,3.84-8.87,1.78-2.25,4.36-3.98,7.73-5.2,3.37-1.21,7.27-1.82,11.71-1.82s7.98.52,10.74,1.55c2.75,1.04,4.78,2.34,6.07,3.91,1.3,1.57,2.2,3.56,2.72,5.95.29,1.49.44,4.18.44,8.07v11.66c0,8.13.19,13.27.56,15.43.37,2.15,1.11,4.22,2.21,6.19h-9.13c-.91-1.81-1.49-3.94-1.75-6.36Zm-.73-19.53c-3.18,1.3-7.94,2.4-14.28,3.3-3.6.52-6.14,1.1-7.63,1.75-1.49.65-2.64,1.6-3.45,2.84-.81,1.25-1.21,2.63-1.21,4.15,0,2.33.88,4.28,2.65,5.83s4.35,2.33,7.75,2.33,6.36-.74,8.99-2.21c2.62-1.47,4.55-3.49,5.78-6.05.94-1.98,1.41-4.89,1.41-8.75v-3.21Z"/>
    <path class="cls-2" d="m1394.85,992.63v-51.6h7.87v7.34c3.79-5.67,9.26-8.5,16.42-8.5,3.11,0,5.97.56,8.58,1.68,2.61,1.12,4.56,2.58,5.86,4.4,1.3,1.81,2.2,3.97,2.72,6.46.32,1.62.49,4.45.49,8.5v31.73h-8.75v-31.39c0-3.56-.34-6.23-1.02-7.99-.68-1.77-1.89-3.17-3.62-4.23-1.73-1.05-3.77-1.58-6.1-1.58-3.72,0-6.94,1.18-9.64,3.55-2.71,2.36-4.06,6.85-4.06,13.46v28.18h-8.75Z"/>
    <path class="cls-2" d="m1483.67,992.63v-6.51c-3.27,5.12-8.08,7.68-14.43,7.68-4.11,0-7.9-1.13-11.35-3.4-3.45-2.27-6.12-5.43-8.02-9.5-1.89-4.07-2.84-8.74-2.84-14.02s.86-9.82,2.57-14.02c1.72-4.19,4.29-7.41,7.73-9.64,3.43-2.24,7.27-3.35,11.52-3.35,3.11,0,5.88.66,8.31,1.97,2.43,1.31,4.4,3.02,5.93,5.13v-25.56h8.7v71.23h-8.11Zm-27.65-25.75c0,6.61,1.39,11.55,4.18,14.82,2.78,3.27,6.07,4.91,9.86,4.91s7.07-1.56,9.74-4.69c2.67-3.13,4.01-7.9,4.01-14.31,0-7.06-1.36-12.24-4.08-15.55-2.72-3.3-6.07-4.96-10.06-4.96s-7.14,1.59-9.74,4.76c-2.61,3.18-3.91,8.18-3.91,15.01Z"/>
    <path class="cls-2" d="m1539.2,986.26c-3.24,2.75-6.36,4.7-9.35,5.83-3,1.13-6.21,1.7-9.65,1.7-5.67,0-10.03-1.38-13.07-4.15-3.04-2.77-4.57-6.31-4.57-10.62,0-2.53.57-4.83,1.72-6.92,1.15-2.09,2.66-3.77,4.52-5.03,1.86-1.26,3.96-2.22,6.29-2.87,1.72-.45,4.31-.89,7.77-1.31,7.06-.84,12.26-1.85,15.6-3.01.03-1.2.05-1.96.05-2.28,0-3.56-.83-6.07-2.48-7.53-2.23-1.98-5.56-2.96-9.96-2.96-4.11,0-7.15.72-9.11,2.16-1.96,1.44-3.41,3.99-4.35,7.65l-8.55-1.17c.78-3.66,2.06-6.62,3.84-8.87,1.78-2.25,4.36-3.98,7.73-5.2,3.37-1.21,7.27-1.82,11.71-1.82s7.98.52,10.74,1.55c2.75,1.04,4.78,2.34,6.07,3.91,1.3,1.57,2.2,3.56,2.72,5.95.29,1.49.44,4.18.44,8.07v11.66c0,8.13.19,13.27.56,15.43.37,2.15,1.11,4.22,2.21,6.19h-9.13c-.91-1.81-1.49-3.94-1.75-6.36Zm-.73-19.53c-3.18,1.3-7.94,2.4-14.28,3.3-3.6.52-6.14,1.1-7.63,1.75-1.49.65-2.64,1.6-3.45,2.84-.81,1.25-1.21,2.63-1.21,4.15,0,2.33.88,4.28,2.65,5.83,1.77,1.55,4.35,2.33,7.75,2.33s6.36-.74,8.99-2.21c2.62-1.47,4.55-3.49,5.78-6.05.94-1.98,1.41-4.89,1.41-8.75v-3.21Z"/>
    <path class="cls-2" d="m1560.77,992.63v-51.6h7.87v7.82c2.01-3.66,3.86-6.07,5.56-7.24,1.7-1.17,3.57-1.75,5.61-1.75,2.95,0,5.94.94,8.99,2.82l-3.01,8.11c-2.14-1.26-4.28-1.9-6.41-1.9-1.91,0-3.63.58-5.15,1.72-1.52,1.15-2.61,2.75-3.26,4.79-.97,3.11-1.46,6.51-1.46,10.2v27.01h-8.75Z"/>
    <path class="cls-2" d="m1627.49,992.63v-6.51c-3.27,5.12-8.08,7.68-14.43,7.68-4.11,0-7.9-1.13-11.35-3.4-3.45-2.27-6.12-5.43-8.02-9.5-1.89-4.07-2.84-8.74-2.84-14.02s.86-9.82,2.57-14.02c1.72-4.19,4.29-7.41,7.73-9.64,3.43-2.24,7.27-3.35,11.52-3.35,3.11,0,5.88.66,8.31,1.97,2.43,1.31,4.4,3.02,5.93,5.13v-25.56h8.7v71.23h-8.11Zm-27.65-25.75c0,6.61,1.39,11.55,4.18,14.82,2.78,3.27,6.07,4.91,9.86,4.91s7.07-1.56,9.74-4.69c2.67-3.13,4.01-7.9,4.01-14.31,0-7.06-1.36-12.24-4.08-15.55-2.72-3.3-6.07-4.96-10.06-4.96s-7.14,1.59-9.74,4.76c-2.61,3.18-3.91,8.18-3.91,15.01Z"/>
  </g>
  <g>
    <path class="cls-2" d="m635.04,1078.23l-7.59-24.81h4.35l3.95,14.32,1.47,5.33c.06-.27.49-1.97,1.29-5.12l3.95-14.53h4.32l3.71,14.39,1.24,4.74,1.43-4.79,4.25-14.34h4.09l-7.76,24.81h-4.37l-3.95-14.86-.96-4.23-5.02,19.08h-4.39Z"/>
    <path class="cls-2" d="m684.38,1070.24l4.35.54c-.69,2.54-1.95,4.51-3.81,5.91-1.85,1.4-4.22,2.1-7.1,2.1-3.63,0-6.51-1.12-8.63-3.35-2.13-2.23-3.19-5.37-3.19-9.4s1.07-7.41,3.22-9.72c2.15-2.31,4.94-3.46,8.36-3.46s6.03,1.13,8.13,3.39c2.1,2.26,3.15,5.43,3.15,9.53,0,.25,0,.62-.02,1.12h-18.5c.16,2.73.93,4.81,2.31,6.26s3.11,2.17,5.19,2.17c1.54,0,2.86-.4,3.95-1.21,1.09-.81,1.95-2.1,2.59-3.88Zm-13.81-6.8h13.85c-.19-2.09-.72-3.65-1.59-4.7-1.34-1.62-3.08-2.43-5.21-2.43-1.93,0-3.55.65-4.87,1.94-1.32,1.29-2.04,3.02-2.18,5.19Z"/>
    <path class="cls-2" d="m728.18,1078.23v-3.13c-1.57,2.46-3.89,3.69-6.94,3.69-1.98,0-3.8-.55-5.45-1.63-1.66-1.09-2.94-2.61-3.85-4.57-.91-1.95-1.37-4.2-1.37-6.74s.41-4.72,1.24-6.74c.83-2.02,2.06-3.56,3.71-4.64,1.65-1.07,3.5-1.61,5.54-1.61,1.49,0,2.83.32,3.99.95,1.17.63,2.12,1.45,2.85,2.47v-12.29h4.18v34.25h-3.9Zm-13.29-12.38c0,3.18.67,5.55,2.01,7.12,1.34,1.57,2.92,2.36,4.74,2.36s3.4-.75,4.68-2.25c1.28-1.5,1.93-3.8,1.93-6.88,0-3.4-.65-5.89-1.96-7.48-1.31-1.59-2.92-2.38-4.84-2.38s-3.43.76-4.68,2.29-1.88,3.93-1.88,7.22Z"/>
    <path class="cls-2" d="m739.52,1065.82c0-4.59,1.28-8,3.83-10.21,2.13-1.84,4.73-2.76,7.8-2.76,3.41,0,6.2,1.12,8.36,3.35,2.16,2.24,3.25,5.32,3.25,9.26,0,3.19-.48,5.7-1.44,7.53s-2.35,3.25-4.18,4.26c-1.83,1.01-3.83,1.52-5.99,1.52-3.47,0-6.28-1.11-8.42-3.34s-3.21-5.44-3.21-9.63Zm4.32,0c0,3.18.69,5.56,2.08,7.14,1.39,1.58,3.13,2.37,5.23,2.37s3.82-.79,5.21-2.38c1.39-1.59,2.08-4.01,2.08-7.26,0-3.07-.7-5.39-2.09-6.97-1.39-1.58-3.13-2.37-5.2-2.37s-3.85.79-5.23,2.36c-1.39,1.57-2.08,3.95-2.08,7.12Z"/>
    <path class="cls-2" d="m770.08,1078.23v-24.81h3.78v3.53c1.82-2.73,4.45-4.09,7.9-4.09,1.49,0,2.87.27,4.12.81,1.25.54,2.19,1.24,2.81,2.11.62.87,1.06,1.91,1.31,3.11.16.78.23,2.14.23,4.09v15.25h-4.2v-15.09c0-1.71-.16-2.99-.49-3.84s-.91-1.53-1.74-2.03c-.83-.51-1.81-.76-2.93-.76-1.79,0-3.34.57-4.64,1.71s-1.95,3.29-1.95,6.47v13.55h-4.2Z"/>
    <path class="cls-2" d="m798.83,1048.51v-4.88h4.51v3.85c0,2.09-.24,3.59-.72,4.51-.67,1.26-1.71,2.21-3.13,2.85l-1.03-1.66c.84-.34,1.47-.88,1.88-1.62s.64-1.76.69-3.05h-2.2Z"/>
    <path class="cls-2" d="m821.29,1074.47l.61,3.71c-1.18.25-2.24.37-3.18.37-1.53,0-2.71-.24-3.55-.72-.84-.48-1.43-1.12-1.78-1.9-.34-.79-.51-2.44-.51-4.96v-14.27h-3.08v-3.27h3.08v-6.14l4.18-2.52v8.67h4.23v3.27h-4.23v14.51c0,1.2.07,1.97.22,2.31.15.34.39.61.72.82s.81.3,1.44.3c.47,0,1.08-.05,1.85-.16Z"/>
    <path class="cls-2" d="m859.66,1069.14l4.13.54c-.45,2.85-1.61,5.08-3.47,6.69-1.86,1.61-4.15,2.42-6.86,2.42-3.4,0-6.12-1.11-8.19-3.33-2.06-2.22-3.1-5.4-3.1-9.54,0-2.68.44-5.02,1.33-7.03.89-2.01,2.24-3.52,4.05-4.52,1.81-1.01,3.79-1.51,5.92-1.51,2.69,0,4.9.68,6.61,2.04,1.71,1.36,2.81,3.3,3.29,5.8l-4.09.63c-.39-1.67-1.08-2.92-2.07-3.76-.99-.84-2.18-1.26-3.59-1.26-2.12,0-3.84.76-5.16,2.28-1.32,1.52-1.99,3.92-1.99,7.21s.64,5.75,1.92,7.27c1.28,1.51,2.94,2.27,5,2.27,1.65,0,3.03-.51,4.13-1.52,1.11-1.01,1.81-2.57,2.1-4.67Z"/>
    <path class="cls-2" d="m886.05,1078.23v-3.64c-1.93,2.8-4.56,4.2-7.87,4.2-1.46,0-2.83-.28-4.1-.84s-2.21-1.27-2.83-2.11c-.62-.85-1.05-1.89-1.3-3.12-.17-.83-.26-2.13-.26-3.92v-15.37h4.21v13.76c0,2.2.09,3.68.26,4.44.26,1.11.83,1.97,1.68,2.6.86.63,1.92.95,3.18.95s2.44-.32,3.55-.97c1.11-.65,1.89-1.53,2.35-2.64.46-1.11.69-2.73.69-4.85v-13.29h4.2v24.81h-3.76Z"/>
    <path class="cls-2" d="m907.97,1074.47l.61,3.71c-1.18.25-2.24.37-3.18.37-1.53,0-2.71-.24-3.55-.72-.84-.48-1.43-1.12-1.78-1.9-.34-.79-.51-2.44-.51-4.96v-14.27h-3.08v-3.27h3.08v-6.14l4.18-2.52v8.67h4.23v3.27h-4.23v14.51c0,1.2.07,1.97.22,2.31.15.34.39.61.72.82s.81.3,1.44.3c.47,0,1.08-.05,1.85-.16Z"/>
    <path class="cls-2" d="m946.34,1069.14l4.13.54c-.45,2.85-1.61,5.08-3.47,6.69-1.86,1.61-4.15,2.42-6.86,2.42-3.4,0-6.12-1.11-8.19-3.33s-3.09-5.4-3.09-9.54c0-2.68.44-5.02,1.33-7.03.89-2.01,2.24-3.52,4.05-4.52,1.81-1.01,3.79-1.51,5.92-1.51,2.69,0,4.9.68,6.61,2.04,1.71,1.36,2.81,3.3,3.29,5.8l-4.09.63c-.39-1.67-1.08-2.92-2.07-3.76-.99-.84-2.18-1.26-3.59-1.26-2.12,0-3.84.76-5.16,2.28-1.32,1.52-1.99,3.92-1.99,7.21s.64,5.75,1.92,7.27c1.28,1.51,2.94,2.27,5,2.27,1.65,0,3.03-.51,4.13-1.52s1.81-2.57,2.1-4.67Z"/>
    <path class="cls-2" d="m954.9,1065.82c0-4.59,1.28-8,3.83-10.21,2.13-1.84,4.73-2.76,7.8-2.76,3.41,0,6.2,1.12,8.36,3.35,2.16,2.24,3.25,5.32,3.25,9.26,0,3.19-.48,5.7-1.44,7.53s-2.35,3.25-4.18,4.26c-1.83,1.01-3.83,1.52-5.99,1.52-3.47,0-6.28-1.11-8.42-3.34s-3.21-5.44-3.21-9.63Zm4.32,0c0,3.18.69,5.56,2.08,7.14s3.13,2.37,5.23,2.37,3.82-.79,5.21-2.38c1.39-1.59,2.08-4.01,2.08-7.26,0-3.07-.7-5.39-2.09-6.97-1.39-1.58-3.13-2.37-5.2-2.37s-3.85.79-5.23,2.36-2.08,3.95-2.08,7.12Z"/>
    <path class="cls-2" d="m985.42,1078.23v-24.81h3.78v3.76c.97-1.76,1.86-2.92,2.68-3.48.82-.56,1.72-.84,2.7-.84,1.42,0,2.86.45,4.32,1.35l-1.45,3.9c-1.03-.61-2.06-.91-3.08-.91-.92,0-1.74.28-2.48.83-.73.55-1.25,1.32-1.56,2.3-.47,1.49-.7,3.13-.7,4.91v12.99h-4.2Z"/>
    <path class="cls-2" d="m1003.79,1078.23v-24.81h3.79v3.53c1.82-2.73,4.45-4.09,7.9-4.09,1.49,0,2.87.27,4.12.81,1.25.54,2.19,1.24,2.81,2.11.62.87,1.06,1.91,1.31,3.11.16.78.23,2.14.23,4.09v15.25h-4.2v-15.09c0-1.71-.16-2.99-.49-3.84-.33-.85-.91-1.53-1.74-2.03-.83-.51-1.81-.76-2.93-.76-1.79,0-3.34.57-4.64,1.71-1.3,1.14-1.95,3.29-1.95,6.47v13.55h-4.2Z"/>
    <path class="cls-2" d="m1049.77,1070.24l4.35.54c-.68,2.54-1.95,4.51-3.81,5.91-1.85,1.4-4.22,2.1-7.1,2.1-3.63,0-6.51-1.12-8.63-3.35-2.13-2.23-3.19-5.37-3.19-9.4s1.07-7.41,3.22-9.72,4.94-3.46,8.36-3.46,6.03,1.13,8.13,3.39c2.1,2.26,3.15,5.43,3.15,9.53,0,.25,0,.62-.02,1.12h-18.5c.16,2.73.93,4.81,2.31,6.26,1.39,1.45,3.12,2.17,5.19,2.17,1.54,0,2.86-.4,3.95-1.21,1.09-.81,1.95-2.1,2.59-3.88Zm-13.81-6.8h13.85c-.19-2.09-.72-3.65-1.59-4.7-1.34-1.62-3.08-2.43-5.21-2.43-1.93,0-3.56.65-4.87,1.94s-2.04,3.02-2.18,5.19Z"/>
    <path class="cls-2" d="m1061.75,1078.23v-24.81h3.78v3.76c.97-1.76,1.86-2.92,2.68-3.48.82-.56,1.72-.84,2.7-.84,1.42,0,2.86.45,4.32,1.35l-1.45,3.9c-1.03-.61-2.06-.91-3.08-.91-.92,0-1.74.28-2.48.83-.73.55-1.25,1.32-1.56,2.3-.47,1.49-.7,3.13-.7,4.91v12.99h-4.2Z"/>
    <path class="cls-2" d="m1078.43,1070.82l4.16-.65c.23,1.67.88,2.94,1.95,3.83,1.07.89,2.56,1.33,4.47,1.33s3.36-.39,4.3-1.18c.93-.79,1.4-1.71,1.4-2.77,0-.95-.41-1.7-1.24-2.24-.58-.37-2.01-.85-4.3-1.43-3.08-.78-5.22-1.45-6.41-2.02s-2.09-1.36-2.71-2.36-.92-2.11-.92-3.33c0-1.11.25-2.13.76-3.07.51-.94,1.2-1.72,2.07-2.35.65-.48,1.55-.89,2.68-1.23,1.13-.33,2.34-.5,3.63-.5,1.95,0,3.66.28,5.13.84,1.47.56,2.56,1.32,3.26,2.28.7.96,1.18,2.24,1.45,3.84l-4.11.56c-.19-1.28-.73-2.27-1.62-2.99-.9-.72-2.16-1.07-3.8-1.07-1.93,0-3.31.32-4.13.96s-1.24,1.39-1.24,2.24c0,.55.17,1.04.51,1.47.34.45.88.83,1.61,1.12.42.16,1.66.51,3.71,1.07,2.97.8,5.05,1.45,6.23,1.95,1.18.51,2.1,1.24,2.77,2.21.67.97,1,2.17,1,3.6s-.41,2.72-1.23,3.96c-.82,1.24-2,2.2-3.54,2.87-1.54.68-3.29,1.02-5.23,1.02-3.22,0-5.68-.67-7.37-2.01-1.69-1.34-2.77-3.32-3.24-5.96Z"/>
    <path class="cls-2" d="m1107.53,1078.23v-4.79h4.79v4.79c0,1.76-.31,3.18-.93,4.26-.62,1.08-1.61,1.92-2.97,2.51l-1.17-1.8c.89-.39,1.54-.96,1.96-1.72.42-.76.65-1.84.7-3.26h-2.38Z"/>
    <path class="cls-2" d="m1142.37,1078.23l-7.59-24.81h4.35l3.95,14.32,1.47,5.33c.06-.27.49-1.97,1.29-5.12l3.95-14.53h4.32l3.71,14.39,1.24,4.74,1.43-4.79,4.25-14.34h4.09l-7.76,24.81h-4.37l-3.95-14.86-.96-4.23-5.02,19.08h-4.39Z"/>
    <path class="cls-2" d="m1191.72,1070.24l4.35.54c-.69,2.54-1.96,4.51-3.81,5.91-1.85,1.4-4.22,2.1-7.1,2.1-3.63,0-6.51-1.12-8.63-3.35-2.13-2.23-3.19-5.37-3.19-9.4s1.08-7.41,3.22-9.72c2.15-2.31,4.94-3.46,8.36-3.46s6.03,1.13,8.13,3.39c2.1,2.26,3.15,5.43,3.15,9.53,0,.25,0,.62-.02,1.12h-18.5c.16,2.73.93,4.81,2.31,6.26,1.39,1.45,3.11,2.17,5.19,2.17,1.54,0,2.86-.4,3.95-1.21,1.09-.81,1.95-2.1,2.59-3.88Zm-13.81-6.8h13.85c-.19-2.09-.72-3.65-1.59-4.7-1.34-1.62-3.08-2.43-5.21-2.43-1.93,0-3.55.65-4.87,1.94-1.32,1.29-2.04,3.02-2.18,5.19Z"/>
    <path class="cls-2" d="m1235.61,1069.14l4.13.54c-.45,2.85-1.61,5.08-3.47,6.69-1.86,1.61-4.15,2.42-6.86,2.42-3.4,0-6.12-1.11-8.19-3.33s-3.09-5.4-3.09-9.54c0-2.68.44-5.02,1.33-7.03.89-2.01,2.24-3.52,4.05-4.52,1.81-1.01,3.79-1.51,5.92-1.51,2.69,0,4.9.68,6.61,2.04,1.71,1.36,2.81,3.3,3.29,5.8l-4.09.63c-.39-1.67-1.08-2.92-2.07-3.76-.99-.84-2.18-1.26-3.59-1.26-2.12,0-3.84.76-5.16,2.28-1.32,1.52-1.99,3.92-1.99,7.21s.64,5.75,1.92,7.27c1.28,1.51,2.94,2.27,5,2.27,1.65,0,3.03-.51,4.13-1.52s1.81-2.57,2.1-4.67Z"/>
    <path class="cls-2" d="m1245.64,1078.23v-34.25h4.2v34.25h-4.2Z"/>
    <path class="cls-2" d="m1275.74,1070.24l4.35.54c-.69,2.54-1.96,4.51-3.81,5.91-1.85,1.4-4.22,2.1-7.1,2.1-3.63,0-6.51-1.12-8.63-3.35-2.13-2.23-3.19-5.37-3.19-9.4s1.08-7.41,3.22-9.72c2.15-2.31,4.94-3.46,8.36-3.46s6.03,1.13,8.13,3.39c2.1,2.26,3.15,5.43,3.15,9.53,0,.25,0,.62-.02,1.12h-18.5c.16,2.73.93,4.81,2.31,6.26,1.39,1.45,3.11,2.17,5.19,2.17,1.54,0,2.86-.4,3.95-1.21,1.09-.81,1.95-2.1,2.59-3.88Zm-13.81-6.8h13.85c-.19-2.09-.72-3.65-1.59-4.7-1.34-1.62-3.08-2.43-5.21-2.43-1.93,0-3.55.65-4.87,1.94-1.32,1.29-2.04,3.02-2.18,5.19Z"/>
    <path class="cls-2" d="m1303.95,1075.17c-1.56,1.32-3.06,2.26-4.5,2.8-1.44.55-2.99.82-4.64.82-2.72,0-4.82-.67-6.28-2-1.46-1.33-2.2-3.03-2.2-5.1,0-1.21.28-2.32.83-3.33.55-1,1.28-1.81,2.17-2.42.9-.61,1.9-1.07,3.03-1.38.83-.22,2.07-.43,3.74-.63,3.4-.4,5.89-.89,7.5-1.45.02-.58.02-.94.02-1.1,0-1.71-.4-2.92-1.19-3.62-1.07-.95-2.67-1.43-4.79-1.43-1.98,0-3.44.35-4.38,1.04-.94.69-1.64,1.92-2.09,3.68l-4.11-.56c.37-1.76.99-3.18,1.85-4.26.86-1.08,2.09-1.92,3.71-2.5s3.5-.88,5.63-.88,3.84.25,5.16.75c1.32.5,2.3,1.12,2.92,1.88s1.06,1.71,1.31,2.86c.14.72.21,2.01.21,3.88v5.61c0,3.91.09,6.38.27,7.42s.53,2.03,1.06,2.98h-4.39c-.44-.87-.72-1.89-.84-3.06Zm-.35-9.39c-1.53.62-3.82,1.15-6.87,1.59-1.73.25-2.95.53-3.67.84s-1.27.77-1.66,1.37-.58,1.27-.58,2c0,1.12.42,2.06,1.27,2.8.85.75,2.09,1.12,3.73,1.12s3.06-.35,4.32-1.06,2.19-1.68,2.78-2.91c.45-.95.68-2.35.68-4.2v-1.54Z"/>
    <path class="cls-2" d="m1316.76,1078.23v-24.81h3.79v3.53c1.82-2.73,4.45-4.09,7.9-4.09,1.49,0,2.87.27,4.12.81,1.25.54,2.19,1.24,2.81,2.11.62.87,1.06,1.91,1.31,3.11.16.78.23,2.14.23,4.09v15.25h-4.2v-15.09c0-1.71-.16-2.99-.49-3.84-.33-.85-.91-1.53-1.74-2.03-.83-.51-1.81-.76-2.93-.76-1.79,0-3.34.57-4.64,1.71-1.3,1.14-1.95,3.29-1.95,6.47v13.55h-4.2Z"/>
    <path class="cls-2" d="m1370.62,1074.47l.61,3.71c-1.18.25-2.24.37-3.18.37-1.53,0-2.71-.24-3.55-.72-.84-.48-1.43-1.12-1.78-1.9-.34-.79-.51-2.44-.51-4.96v-14.27h-3.08v-3.27h3.08v-6.14l4.18-2.52v8.67h4.23v3.27h-4.23v14.51c0,1.2.07,1.97.22,2.31.15.34.39.61.72.82s.81.3,1.44.3c.47,0,1.08-.05,1.85-.16Z"/>
    <path class="cls-2" d="m1377.12,1078.23v-34.25h4.2v12.29c1.96-2.27,4.44-3.41,7.43-3.41,1.84,0,3.43.36,4.79,1.09,1.35.72,2.32,1.72,2.91,3,.58,1.28.88,3.13.88,5.56v15.72h-4.2v-15.72c0-2.1-.46-3.63-1.37-4.59s-2.2-1.44-3.87-1.44c-1.25,0-2.42.32-3.52.97-1.1.65-1.88,1.52-2.35,2.63-.47,1.11-.7,2.63-.7,4.58v13.57h-4.2Z"/>
    <path class="cls-2" d="m1423.11,1070.24l4.35.54c-.69,2.54-1.96,4.51-3.81,5.91-1.85,1.4-4.22,2.1-7.1,2.1-3.63,0-6.51-1.12-8.63-3.35-2.13-2.23-3.19-5.37-3.19-9.4s1.08-7.41,3.22-9.72c2.15-2.31,4.94-3.46,8.36-3.46s6.03,1.13,8.13,3.39c2.1,2.26,3.15,5.43,3.15,9.53,0,.25,0,.62-.02,1.12h-18.5c.16,2.73.93,4.81,2.31,6.26,1.39,1.45,3.11,2.17,5.19,2.17,1.54,0,2.86-.4,3.95-1.21,1.09-.81,1.95-2.1,2.59-3.88Zm-13.81-6.8h13.85c-.19-2.09-.72-3.65-1.59-4.7-1.34-1.62-3.08-2.43-5.21-2.43-1.93,0-3.55.65-4.87,1.94-1.32,1.29-2.04,3.02-2.18,5.19Z"/>
    <path class="cls-2" d="m1435.12,1078.23v-24.81h3.76v3.48c.78-1.21,1.81-2.19,3.11-2.93s2.76-1.11,4.41-1.11c1.84,0,3.34.38,4.52,1.15,1.18.76,2,1.83,2.49,3.2,1.96-2.9,4.52-4.35,7.66-4.35,2.46,0,4.35.68,5.68,2.04,1.32,1.36,1.99,3.46,1.99,6.3v17.03h-4.18v-15.63c0-1.68-.14-2.89-.41-3.63-.27-.74-.77-1.34-1.48-1.79-.72-.45-1.56-.68-2.52-.68-1.74,0-3.19.58-4.34,1.74-1.15,1.16-1.73,3.02-1.73,5.57v14.41h-4.2v-16.12c0-1.87-.34-3.27-1.03-4.2-.69-.93-1.81-1.4-3.36-1.4-1.18,0-2.28.31-3.28.93s-1.73,1.53-2.18,2.73c-.45,1.2-.68,2.93-.68,5.19v12.87h-4.2Z"/>
  </g>
  <g>
    <path class="cls-1" d="m513.93,926.72v5.46s-.02.07-.06.07h-15.25s-.06-.02-.07-.06l-2.52-7.49-1.92,4.63s-.04.06-.06.06l-9.12.78c-.07,0-.09.09-.06.13l6.15,4.91s.04.06.04.07l-2.04,7.18c-.02.06.06.11.11.07l4.8-3.81s.07-.02.09.02l3.4,4.28s.02.07-.02.09l-13.21,10.47c-.34.26-.71.41-1.08.45-.06.04-.11.04-.17.06-79.37,15.55-113.38,71.02-113.72,71.58l-4.82-2.88c.36-.58,35.42-57.92,117.01-74.08l3.21-11.36s0-.06-.02-.07l-14.17-11.34c-.06-.04-.04-.11.04-.13l19.68-1.7s.06-.02.07-.06l6.24-15.14c.02-.06.11-.06.13,0l5.96,17.68s.04.06.07.06h11.23s.06.02.06.07Z"/>
    <path class="cls-1" d="m375.01,1053.39l-4.3-3.6c1.09-1.3,26.89-31.95,48.26-46.94l3.22,4.59c-20.76,14.56-46.92,45.64-47.18,45.95Z"/>
    <path class="cls-1" d="m441.98,998.04l-3.86-4.06c.23-.22,5.71-5.37,13.72-6.81l.99,5.52c-6.31,1.14-10.81,5.32-10.86,5.36Z"/>
    <rect class="cls-1" x="364.73" y="1080.82" width="16.22" height="5.61" transform="translate(-629.49 528.12) rotate(-42.02)"/>
    <path class="cls-1" d="m392.7,1066.39l-4.38-3.51c1.36-1.7,33.97-41.75,82.12-43.04l.15,5.6c-45.5,1.22-77.57,40.55-77.89,40.94Z"/>
    <path class="cls-1" d="m485.71,989.31l.79,2.5c0,.06-.06.11-.11.11-.02,0-.06-.02-.07-.04l-.56-.41-5.68-4.19c-.06-.04-.13-.04-.19,0l-6.2,4.47c-.11.07-.26-.04-.22-.17l2.39-7.27c.02-.06,0-.11-.06-.15l-6.15-4.54c-.11-.07-.04-.26.09-.26l7.64.06c.07,0,.13-.04.15-.09l2.37-7.27c.06-.13.24-.13.28,0l2.34,7.29c.02.06.07.09.15.09l3.38.02,4.71.02-4.93,3.57-1.72,1.23,1.61,5.03Z"/>
    <path class="cls-1" d="m575.67,972.8c-1.25-.68-3.31-1.18-6.05.35-7.2,4.04-15.71,20.82-18,26.48-.46,1.09-1.15,1.95-1.99,2.42-.33.19-1.51.75-2.41-.06-1.4-1.27-1.67-5.22.92-11.2,2.35-5.41,6.07-11.77,9.64-17.94,8.18-14.03,15.22-26.15,10.41-32.31-1.11-1.42-3.79-3.37-9.17-.34-3.86,2.17-8.88,6.76-13.87,12.23,1.24-2.43,2.11-4.02,2.58-4.7,2.47-3.49,4.52-8.85,3.54-12.98-.5-2.07-1.71-3.67-3.49-4.6-1.49-.79-3.98-1.3-7.48.67-3.51,1.97-7.43,6.04-11.75,12.17.22-.85.4-1.55.49-2.1,1.62-9.63-2.29-12-4.78-12.55-.87-.2-2.27-.22-4.06.77-3.88,2.19-7.95,8.16-11.87,17.3-.7-1.3-1.75-2.26-3.25-2.72-1.34-.42-2.76-.23-4.08.51-7.96,4.46-13.98,33.34-12.18,58.31,1.28,17.59,3.34,23.34,4.59,26.75.75,2.05,1.05,2.9.84,5.32-.2,2.23-3.01,9.57-6.89,18.81-.04.11-.09.24-.13.35l5.26,1.46c.07-.15.13-.29.2-.42,3.8-9.12,6.73-16.91,6.99-19.72.31-3.61-.3-5.3-1.14-7.64-1.15-3.16-3.06-8.45-4.29-25.29-1.89-26.11,5.14-50.76,9.4-53.18,0,.15,1.51,2.44-.95,13.22-.95,3.12-1.96,6.73-3,10.71l5.2,1.55c.07-.22,1.77-5.22,3.1-11.06,7.45-24.3,13.69-28.83,14.88-29.5.88-.06,1.52,2.01.83,6.16-.72,4.32-8.32,24.25-11.17,31.55l4.97,2.17c18.67-38.77,26.88-39.24,27.73-38.78.29.15.59.39.76,1.08.47,2-.7,5.76-2.68,8.57-2.16,3.05-9.05,17.76-14.45,29.57-1.72,2.94-2.88,5.55-3.34,7.52l5.11,1.73,3.18-6.99c6.12-10.55,20-27.08,27.87-31.48,1.79-1.01,2.45-.91,2.47-.91,2.31,3.12-5.41,16.42-11.06,26.11-3.66,6.28-7.46,12.8-9.92,18.51-4.78,11.03-1.31,15.83.41,17.37,3.88,3.51,10.77,1.36,13.09-4.34,3.11-7.72,10.95-21.16,15.61-23.76.58-.34.83-.32.84-.32,3.27,1.82-3.91,22.88-7.34,33l-1.01,2.95c-5.51,16.28-24.45,42.58-31.6,52.48l-.14.2-.1.14,5.58,1.53s.02-.04.06-.05c8.38-11.66,25.81-36.18,31.36-52.55l.99-2.95c7.51-22.01,11.75-35.69,4.76-39.53Z"/>
  </g>
</svg>