<?xml version="1.0" encoding="UTF-8"?>
<svg id="Layer_1" data-name="Layer 1" xmlns="http://www.w3.org/2000/svg" viewBox="0 0 1008.3 153.33">
  <defs>
    <style>
      .cls-1 {
        fill: #fff;
      }

      .cls-2 {
        letter-spacing: .03em;
      }

      .cls-3 {
        font-family: ArialMT, Arial;
        font-size: 41.49px;
      }

      .cls-3, .cls-4 {
        fill: #486bb2;
      }

      .cls-5 {
        letter-spacing: .05em;
      }
    </style>
  </defs>
  <g>
    <g>
      <path class="cls-4" d="m151.78,65.83V11.5h-20.3v-7.27h48.83v7.27h-20.38v54.33h-8.15Z"/>
      <path class="cls-4" d="m187.71,65.83V4.23h7.56v22.1c3.53-4.09,7.98-6.13,13.36-6.13,3.3,0,6.18.65,8.61,1.95,2.44,1.3,4.18,3.1,5.23,5.4,1.05,2.3,1.58,5.63,1.58,10v28.28h-7.56v-28.28c0-3.78-.82-6.53-2.46-8.26-1.64-1.72-3.96-2.58-6.95-2.58-2.24,0-4.35.58-6.32,1.74-1.97,1.16-3.38,2.74-4.22,4.73-.84,1.99-1.26,4.73-1.26,8.24v24.41h-7.56Z"/>
      <path class="cls-4" d="m266.12,51.46l7.82.97c-1.23,4.57-3.52,8.11-6.85,10.63-3.33,2.52-7.59,3.78-12.77,3.78-6.53,0-11.7-2.01-15.53-6.03-3.82-4.02-5.74-9.66-5.74-16.91s1.93-13.33,5.8-17.48c3.87-4.15,8.88-6.22,15.04-6.22s10.84,2.03,14.62,6.09c3.78,4.06,5.67,9.78,5.67,17.14,0,.45-.01,1.12-.04,2.02h-33.28c.28,4.9,1.67,8.66,4.16,11.26,2.49,2.61,5.6,3.91,9.33,3.91,2.77,0,5.14-.73,7.1-2.18s3.52-3.78,4.66-6.98Zm-24.83-12.23h24.92c-.34-3.75-1.29-6.57-2.86-8.45-2.41-2.91-5.53-4.37-9.37-4.37-3.47,0-6.39,1.16-8.76,3.49-2.37,2.32-3.68,5.43-3.93,9.33Z"/>
      <path class="cls-4" d="m352.26,44.24l8.15,2.06c-1.71,6.69-4.78,11.8-9.22,15.32s-9.87,5.27-16.28,5.27-12.04-1.35-16.2-4.05c-4.16-2.7-7.33-6.62-9.5-11.74-2.17-5.13-3.26-10.63-3.26-16.51,0-6.41,1.23-12.01,3.68-16.79,2.45-4.78,5.94-8.4,10.46-10.88,4.52-2.48,9.5-3.72,14.94-3.72,6.16,0,11.34,1.57,15.55,4.71,4.2,3.14,7.13,7.55,8.78,13.24l-8.03,1.89c-1.43-4.48-3.5-7.75-6.22-9.79-2.72-2.04-6.13-3.07-10.25-3.07-4.73,0-8.69,1.13-11.87,3.4-3.18,2.27-5.41,5.32-6.7,9.14-1.29,3.82-1.93,7.77-1.93,11.83,0,5.24.76,9.81,2.29,13.72,1.53,3.91,3.9,6.83,7.12,8.76,3.22,1.93,6.71,2.9,10.46,2.9,4.57,0,8.43-1.32,11.6-3.95,3.17-2.63,5.31-6.54,6.43-11.72Z"/>
      <path class="cls-4" d="m369.32,65.83V4.23h7.56v61.6h-7.56Z"/>
      <path class="cls-4" d="m419.15,51.46l7.82.97c-1.23,4.57-3.52,8.11-6.85,10.63-3.33,2.52-7.59,3.78-12.77,3.78-6.53,0-11.7-2.01-15.53-6.03-3.82-4.02-5.74-9.66-5.74-16.91s1.93-13.33,5.8-17.48c3.87-4.15,8.88-6.22,15.04-6.22s10.84,2.03,14.62,6.09c3.78,4.06,5.67,9.78,5.67,17.14,0,.45-.01,1.12-.04,2.02h-33.28c.28,4.9,1.67,8.66,4.16,11.26,2.49,2.61,5.6,3.91,9.33,3.91,2.77,0,5.14-.73,7.1-2.18,1.96-1.46,3.52-3.78,4.66-6.98Zm-24.83-12.23h24.92c-.34-3.75-1.29-6.57-2.86-8.45-2.41-2.91-5.53-4.37-9.37-4.37-3.47,0-6.39,1.16-8.76,3.49-2.37,2.32-3.68,5.43-3.93,9.33Z"/>
      <path class="cls-4" d="m465.58,60.33c-2.8,2.38-5.5,4.06-8.09,5.04-2.59.98-5.37,1.47-8.34,1.47-4.9,0-8.67-1.2-11.3-3.59-2.63-2.4-3.95-5.46-3.95-9.18,0-2.19.5-4.18,1.49-5.99.99-1.81,2.3-3.26,3.91-4.35,1.61-1.09,3.42-1.92,5.44-2.48,1.48-.39,3.72-.77,6.72-1.13,6.11-.73,10.6-1.6,13.49-2.61.03-1.04.04-1.69.04-1.97,0-3.08-.71-5.25-2.14-6.51-1.93-1.71-4.8-2.56-8.61-2.56-3.56,0-6.18.62-7.88,1.87-1.69,1.25-2.95,3.45-3.76,6.62l-7.39-1.01c.67-3.16,1.78-5.72,3.32-7.67,1.54-1.95,3.77-3.45,6.68-4.5,2.91-1.05,6.29-1.58,10.13-1.58s6.9.45,9.29,1.34c2.38.9,4.13,2.02,5.25,3.38,1.12,1.36,1.91,3.07,2.35,5.15.25,1.29.38,3.61.38,6.97v10.09c0,7.03.16,11.48.48,13.34.32,1.86.96,3.65,1.91,5.36h-7.9c-.79-1.57-1.29-3.4-1.51-5.5Zm-.63-16.89c-2.75,1.12-6.86,2.07-12.35,2.86-3.11.45-5.31.95-6.6,1.51-1.29.56-2.28,1.38-2.98,2.46-.7,1.08-1.05,2.28-1.05,3.59,0,2.02.76,3.7,2.29,5.04,1.53,1.34,3.76,2.02,6.7,2.02s5.5-.64,7.77-1.91c2.27-1.27,3.94-3.02,5-5.23.81-1.71,1.22-4.23,1.22-7.56v-2.77Z"/>
      <path class="cls-4" d="m484.32,65.83V21.21h6.81v6.34c3.28-4.9,8.01-7.35,14.2-7.35,2.69,0,5.16.48,7.42,1.45,2.25.97,3.94,2.23,5.06,3.8,1.12,1.57,1.9,3.43,2.35,5.59.28,1.4.42,3.85.42,7.35v27.44h-7.56v-27.14c0-3.08-.29-5.38-.88-6.91-.59-1.53-1.63-2.75-3.13-3.66-1.5-.91-3.26-1.37-5.27-1.37-3.22,0-6,1.02-8.34,3.07-2.34,2.04-3.51,5.92-3.51,11.64v24.37h-7.56Z"/>
      <path class="cls-4" d="m532.22,12.93V4.23h7.56v8.7h-7.56Zm0,52.9V21.21h7.56v44.62h-7.56Z"/>
      <path class="cls-4" d="m551.3,65.83V21.21h6.81v6.34c3.28-4.9,8.01-7.35,14.2-7.35,2.69,0,5.16.48,7.42,1.45,2.25.97,3.94,2.23,5.06,3.8s1.9,3.43,2.35,5.59c.28,1.4.42,3.85.42,7.35v27.44h-7.56v-27.14c0-3.08-.29-5.38-.88-6.91-.59-1.53-1.63-2.75-3.13-3.66-1.5-.91-3.26-1.37-5.27-1.37-3.22,0-6,1.02-8.34,3.07-2.34,2.04-3.51,5.92-3.51,11.64v24.37h-7.56Z"/>
      <path class="cls-4" d="m597.77,69.53l7.35,1.09c.31,2.27,1.16,3.92,2.56,4.96,1.88,1.4,4.44,2.1,7.69,2.1,3.5,0,6.2-.7,8.11-2.1,1.9-1.4,3.19-3.36,3.86-5.88.39-1.54.57-4.78.55-9.71-3.3,3.89-7.42,5.84-12.35,5.84-6.14,0-10.88-2.21-14.24-6.64-3.36-4.43-5.04-9.73-5.04-15.93,0-4.26.77-8.19,2.31-11.79,1.54-3.6,3.77-6.38,6.7-8.34,2.93-1.96,6.37-2.94,10.32-2.94,5.27,0,9.61,2.13,13.02,6.39v-5.38h6.98v38.57c0,6.95-.71,11.87-2.12,14.77-1.42,2.9-3.66,5.19-6.72,6.87-3.07,1.68-6.84,2.52-11.32,2.52-5.32,0-9.62-1.2-12.9-3.59-3.28-2.4-4.86-6-4.75-10.82Zm6.26-26.81c0,5.86,1.16,10.13,3.49,12.82,2.32,2.69,5.24,4.03,8.74,4.03s6.39-1.34,8.74-4.01c2.35-2.67,3.53-6.87,3.53-12.58s-1.21-9.58-3.63-12.35c-2.42-2.77-5.34-4.16-8.76-4.16s-6.22,1.37-8.57,4.1c-2.35,2.73-3.53,6.79-3.53,12.16Z"/>
      <path class="cls-4" d="m669.12,46.04l7.69-.67c.36,3.08,1.21,5.61,2.54,7.58,1.33,1.97,3.4,3.57,6.2,4.79,2.8,1.22,5.95,1.83,9.45,1.83,3.11,0,5.86-.46,8.24-1.39,2.38-.92,4.15-2.19,5.32-3.8,1.16-1.61,1.74-3.37,1.74-5.27s-.56-3.62-1.68-5.06c-1.12-1.44-2.97-2.65-5.55-3.63-1.65-.64-5.31-1.65-10.97-3-5.66-1.36-9.62-2.64-11.89-3.84-2.94-1.54-5.13-3.45-6.58-5.74-1.44-2.28-2.16-4.84-2.16-7.67,0-3.11.88-6.02,2.65-8.72,1.77-2.7,4.34-4.75,7.73-6.16,3.39-1.4,7.16-2.1,11.3-2.1,4.57,0,8.59.73,12.08,2.21,3.49,1.47,6.17,3.63,8.05,6.49,1.88,2.86,2.88,6.09,3.03,9.71l-7.82.59c-.42-3.89-1.84-6.83-4.26-8.82-2.42-1.99-6-2.98-10.74-2.98s-8.52.9-10.78,2.71c-2.25,1.81-3.38,3.99-3.38,6.53,0,2.21.8,4.03,2.4,5.46,1.57,1.43,5.67,2.89,12.29,4.39,6.62,1.5,11.17,2.81,13.64,3.93,3.58,1.65,6.23,3.75,7.94,6.28,1.71,2.54,2.56,5.46,2.56,8.76s-.94,6.37-2.82,9.27c-1.88,2.9-4.57,5.15-8.09,6.76-3.52,1.61-7.47,2.42-11.87,2.42-5.58,0-10.25-.81-14.01-2.44-3.77-1.62-6.72-4.07-8.87-7.33-2.14-3.26-3.27-6.95-3.38-11.07Z"/>
      <path class="cls-4" d="m744.84,59.07l1.09,6.68c-2.13.45-4.03.67-5.71.67-2.75,0-4.87-.43-6.39-1.3-1.51-.87-2.58-2.01-3.19-3.42-.62-1.41-.92-4.39-.92-8.93v-25.67h-5.55v-5.88h5.55v-11.05l7.52-4.54v15.59h7.61v5.88h-7.61v26.09c0,2.16.13,3.54.4,4.16.27.62.7,1.11,1.3,1.47.6.36,1.46.55,2.58.55.84,0,1.95-.1,3.32-.29Z"/>
      <path class="cls-4" d="m781.35,60.33c-2.8,2.38-5.5,4.06-8.09,5.04-2.59.98-5.37,1.47-8.34,1.47-4.9,0-8.67-1.2-11.3-3.59-2.63-2.4-3.95-5.46-3.95-9.18,0-2.19.5-4.18,1.49-5.99.99-1.81,2.3-3.26,3.91-4.35,1.61-1.09,3.43-1.92,5.44-2.48,1.49-.39,3.73-.77,6.72-1.13,6.11-.73,10.6-1.6,13.49-2.61.03-1.04.04-1.69.04-1.97,0-3.08-.71-5.25-2.14-6.51-1.93-1.71-4.8-2.56-8.61-2.56-3.56,0-6.18.62-7.88,1.87-1.69,1.25-2.95,3.45-3.76,6.62l-7.39-1.01c.67-3.16,1.78-5.72,3.32-7.67,1.54-1.95,3.77-3.45,6.68-4.5,2.91-1.05,6.29-1.58,10.13-1.58s6.9.45,9.29,1.34c2.38.9,4.13,2.02,5.25,3.38,1.12,1.36,1.91,3.07,2.35,5.15.25,1.29.38,3.61.38,6.97v10.09c0,7.03.16,11.48.48,13.34.32,1.86.96,3.65,1.91,5.36h-7.9c-.79-1.57-1.29-3.4-1.51-5.5Zm-.63-16.89c-2.75,1.12-6.86,2.07-12.35,2.86-3.11.45-5.31.95-6.6,1.51-1.29.56-2.28,1.38-2.98,2.46-.7,1.08-1.05,2.28-1.05,3.59,0,2.02.76,3.7,2.29,5.04s3.76,2.02,6.7,2.02,5.5-.64,7.77-1.91c2.27-1.27,3.94-3.02,5-5.23.81-1.71,1.22-4.23,1.22-7.56v-2.77Z"/>
      <path class="cls-4" d="m800.09,65.83V21.21h6.81v6.34c3.28-4.9,8.01-7.35,14.2-7.35,2.69,0,5.16.48,7.42,1.45,2.25.97,3.94,2.23,5.06,3.8,1.12,1.57,1.9,3.43,2.35,5.59.28,1.4.42,3.85.42,7.35v27.44h-7.56v-27.14c0-3.08-.29-5.38-.88-6.91-.59-1.53-1.63-2.75-3.13-3.66-1.5-.91-3.26-1.37-5.27-1.37-3.22,0-6,1.02-8.34,3.07-2.34,2.04-3.51,5.92-3.51,11.64v24.37h-7.56Z"/>
      <path class="cls-4" d="m876.9,65.83v-5.63c-2.83,4.43-6.99,6.64-12.48,6.64-3.56,0-6.83-.98-9.81-2.94-2.98-1.96-5.29-4.7-6.93-8.21-1.64-3.52-2.46-7.56-2.46-12.12s.74-8.49,2.23-12.12c1.49-3.63,3.71-6.41,6.68-8.34,2.97-1.93,6.29-2.9,9.96-2.9,2.69,0,5.08.57,7.19,1.7s3.81,2.61,5.13,4.43V4.23h7.52v61.6h-7.02Zm-23.91-22.27c0,5.71,1.2,9.99,3.61,12.82,2.41,2.83,5.25,4.24,8.53,4.24s6.11-1.35,8.42-4.06c2.31-2.7,3.47-6.83,3.47-12.37,0-6.11-1.18-10.59-3.53-13.45-2.35-2.86-5.25-4.29-8.7-4.29s-6.17,1.37-8.42,4.12c-2.25,2.75-3.38,7.07-3.38,12.98Z"/>
      <path class="cls-4" d="m924.93,60.33c-2.8,2.38-5.5,4.06-8.09,5.04-2.59.98-5.37,1.47-8.34,1.47-4.9,0-8.67-1.2-11.3-3.59-2.63-2.4-3.95-5.46-3.95-9.18,0-2.19.5-4.18,1.49-5.99.99-1.81,2.3-3.26,3.91-4.35,1.61-1.09,3.43-1.92,5.44-2.48,1.49-.39,3.73-.77,6.72-1.13,6.11-.73,10.6-1.6,13.49-2.61.03-1.04.04-1.69.04-1.97,0-3.08-.71-5.25-2.14-6.51-1.93-1.71-4.8-2.56-8.61-2.56-3.56,0-6.18.62-7.88,1.87-1.69,1.25-2.95,3.45-3.76,6.62l-7.39-1.01c.67-3.16,1.78-5.72,3.32-7.67,1.54-1.95,3.77-3.45,6.68-4.5,2.91-1.05,6.29-1.58,10.13-1.58s6.9.45,9.29,1.34c2.38.9,4.13,2.02,5.25,3.38,1.12,1.36,1.91,3.07,2.35,5.15.25,1.29.38,3.61.38,6.97v10.09c0,7.03.16,11.48.48,13.34.32,1.86.96,3.65,1.91,5.36h-7.9c-.79-1.57-1.29-3.4-1.51-5.5Zm-.63-16.89c-2.75,1.12-6.86,2.07-12.35,2.86-3.11.45-5.31.95-6.6,1.51-1.29.56-2.28,1.38-2.98,2.46-.7,1.08-1.05,2.28-1.05,3.59,0,2.02.76,3.7,2.29,5.04,1.53,1.34,3.76,2.02,6.7,2.02s5.5-.64,7.77-1.91c2.27-1.27,3.94-3.02,5-5.23.81-1.71,1.22-4.23,1.22-7.56v-2.77Z"/>
      <path class="cls-4" d="m943.59,65.83V21.21h6.81v6.76c1.74-3.17,3.34-5.25,4.81-6.26,1.47-1.01,3.09-1.51,4.85-1.51,2.55,0,5.14.81,7.77,2.44l-2.61,7.02c-1.85-1.09-3.7-1.64-5.55-1.64-1.65,0-3.14.5-4.45,1.49-1.32.99-2.25,2.37-2.82,4.14-.84,2.69-1.26,5.63-1.26,8.82v23.36h-7.56Z"/>
      <path class="cls-4" d="m1001.28,65.83v-5.63c-2.83,4.43-6.99,6.64-12.48,6.64-3.56,0-6.83-.98-9.81-2.94-2.98-1.96-5.29-4.7-6.93-8.21-1.64-3.52-2.46-7.56-2.46-12.12s.74-8.49,2.23-12.12c1.49-3.63,3.71-6.41,6.68-8.34,2.97-1.93,6.29-2.9,9.96-2.9,2.69,0,5.08.57,7.19,1.7s3.81,2.61,5.13,4.43V4.23h7.52v61.6h-7.02Zm-23.91-22.27c0,5.71,1.2,9.99,3.61,12.82,2.41,2.83,5.25,4.24,8.53,4.24s6.11-1.35,8.42-4.06c2.31-2.7,3.47-6.83,3.47-12.37,0-6.11-1.18-10.59-3.53-13.45-2.35-2.86-5.25-4.29-8.7-4.29s-6.17,1.37-8.42,4.12c-2.25,2.75-3.38,7.07-3.38,12.98Z"/>
    </g>
    <g>
      <g>
        <path class="cls-4" d="m48.2,127.94c1.34-42.59-35.95-43.12-35.95-43.12-3.45,44.24,24.77,44.97,24.77,44.97-3.95-6.01-13.71-26.51-13.71-26.51,20.87,19.8,21.8,41.63,21.83,42.44C20.2,144.97,2.16,123.97.09,98.37c-1.39-17.31,14.42-47.09,28.17-69.35C38.51,12.42,47.62,0,47.62,0c0,0,35.65,51.43,43.8,84.25-41.41,10.22-43.22,43.69-43.22,43.69Z"/>
        <path class="cls-4" d="m53.8,145.15s25.9-18.67,32.79-36.64c0,0-29.48,26.76-37.29,34.48,0,0,.96-36.43,27.28-47.46,0,0,8.44-2.76,15.74-7.09,3.79-2.25,7.27-4.92,9.1-7.86,0,0,17.82,58.44-47.62,64.57Z"/>
      </g>
      <path class="cls-4" d="m96.6,13.29l.94,8.33c.57,5.06,4.57,9.06,9.63,9.63l8.33.94-8.33.94c-5.06.57-9.06,4.57-9.63,9.63l-.94,8.33-.94-8.33c-.57-5.06-4.57-9.06-9.63-9.63l-8.33-.94,8.33-.94c5.06-.57,9.06-4.57,9.63-9.63l.94-8.33Z"/>
      <path class="cls-1" d="m60.12,55.42l.86,7.69c.53,4.67,4.21,8.36,8.89,8.89l7.69.86-7.69.86c-4.67.53-8.36,4.21-8.89,8.89l-.86,7.69-.86-7.69c-.53-4.67-4.21-8.36-8.89-8.89l-7.69-.86,7.69-.86c4.67-.53,8.36-4.21,8.89-8.89l.86-7.69Z"/>
      <path class="cls-4" d="m114.07,46.16l.71,6.31c.43,3.84,3.46,6.86,7.3,7.3l6.31.71-6.31.71c-3.84.43-6.86,3.46-7.3,7.3l-.71,6.31-.71-6.31c-.43-3.84-3.46-6.86-7.3-7.3l-6.31-.71,6.31-.71c3.84-.43,6.86-3.46,7.3-7.3l.71-6.31Z"/>
    </g>
  </g>
  <text class="cls-3" transform="translate(137.44 139.86)"><tspan class="cls-2" x="0" y="0">W</tspan><tspan class="cls-5" x="40.48" y="0">e don’t cut corners, we clean them</tspan></text>
</svg>